<svg viewBox="0 0 606.33 256" xmlns="http://www.w3.org/2000/svg"><circle cx="127.75" cy="128.66" fill="#1640d8" r="121.63"/><g fill="#fff"><path d="m126.61 141.46h-11.61c-1.63 0-2.2-.59-2.2-2.24v-23.09c0-1.65.57-2.23 2.2-2.23q11.6 0 23.18 0c1.55 0 2.16.62 2.16 2.2q0 11.58 0 23.17c0 1.57-.61 2.19-2.17 2.19zm0-26.35h-11.41c-1.11 0-1.16 0-1.16 1.13v22.89c0 1 .06 1.1 1.1 1.1h22.86c1.08 0 1.13-.06 1.13-1.17v-22.8c0-1.1-.06-1.15-1.15-1.15z"/><path d="m26.72 158a1.12 1.12 0 0 1 -.82 1.1c-3.2.88-6.39 1.78-9.6 2.63-.77.2-1.15-.33-1.34-1q-.89-3.27-1.79-6.55c-.22-.81-.45-1.62-.66-2.44-.25-1 0-1.44.94-1.71 3.05-.86 6.11-1.68 9.16-2.51a1.06 1.06 0 0 1 1.44.75c.89 3.16 1.75 6.34 2.61 9.51.03.11.04.22.06.22zm-3.82-10.15a1.17 1.17 0 0 0 -.27 0l-9.07 2.51c-.72.2-.88.63-.68 1.31.82 2.9 1.65 5.8 2.4 8.72.22.84.67 1 1.39.84 3-.79 5.93-1.63 8.91-2.42a.82.82 0 0 0 .66-1.15c-.83-3.06-1.67-6.11-2.51-9.17a.79.79 0 0 0 -.83-.64z"/><path d="m21.88 76.91c.07-.15.16-.41.28-.65 1.35-2.64 2.7-5.28 4.07-7.91.68-1.33 1-1.43 2.34-.75 2.66 1.38 5.32 2.75 8 4.14.91.48 1 .92.57 1.85l-4.23 8.24c-.48.92-.89 1.09-1.82.62-2.87-1.44-5.71-2.92-8.56-4.39a1.2 1.2 0 0 1 -.65-1.15zm9.85 5.34a.68.68 0 0 0 .71-.44c1.43-2.79 2.87-5.59 4.33-8.37.32-.63.26-1-.43-1.38-2.69-1.37-5.36-2.79-8-4.17-.9-.47-1.23-.34-1.72.61-1.36 2.63-2.7 5.27-4.07 7.9-.38.71-.28 1.12.47 1.5 2.68 1.35 5.32 2.75 8 4.13a1.31 1.31 0 0 0 .71.22z"/><path d="m138.29 243.67c-.73.12-1.17-.3-1.3-1.07-.49-2.94-1-5.88-1.45-8.83-.24-1.58 0-1.83 1.57-2.1l8.56-1.43c1.09-.18 1.59.17 1.78 1.27.51 3 1 6.06 1.49 9.1.14.88-.21 1.42-1 1.55l-9.1 1.48c-.15.02-.3.02-.55.03zm.17-.38c.68-.1 1.54-.22 2.41-.36 2.28-.37 4.57-.74 6.86-1.13.6-.11 1-.4.78-1.14s-.17-1.25-.28-1.87c-.41-2.47-.83-4.93-1.23-7.39-.1-.58-.38-.91-1-.82-3.12.51-6.23 1.06-9.36 1.55-.87.13-.88.66-.78 1.31q.72 4.5 1.45 9c.11.56.33.92 1.15.85z"/><path d="m24.27 181.65a1 1 0 0 1 -1.15-.63q-2.14-4.4-4.3-8.8a1 1 0 0 1 .58-1.56l8.72-4.26a1 1 0 0 1 1.53.51q2.19 4.38 4.3 8.79a1.08 1.08 0 0 1 -.58 1.58l-8.65 4.22a2.52 2.52 0 0 1 -.45.15zm4.34-14.91a1.41 1.41 0 0 0 -.76.21l-7.85 3.86c-.93.45-1 .77-.56 1.73 1.13 2.34 2.26 4.68 3.42 7s.7 2.13 3 1l7.08-3.45c.55-.26 1-.56.69-1.31-1.39-2.85-2.79-5.7-4.17-8.55a.75.75 0 0 0 -.85-.49z"/><path d="m98.43 26.05a1.19 1.19 0 0 1 -.86 1.21q-4.44 1.6-8.88 3.19c-.94.34-1.35.17-1.7-.77-1.11-3-2.19-6-3.27-8.95a1.09 1.09 0 0 1 .74-1.57l8.94-3.27a1.11 1.11 0 0 1 1.62.67c1.13 3 2.23 6.07 3.34 9.11a2.41 2.41 0 0 1 .07.38zm-14.36-5.54c0 .08.1.41.22.72.39 1.08.8 2.15 1.2 3.23.58 1.62 1.14 3.25 1.75 4.86.2.53.39 1.14 1.22.83q4.5-1.68 9-3.31c.69-.25.66-.68.46-1.22-1-2.86-2.12-5.72-3.14-8.6a1 1 0 0 0 -1.46-.7c-.57.2-1.13.42-1.7.63-2.25.81-4.5 1.6-6.74 2.43-.38.15-.88.25-.81 1.13z"/><path d="m110.78 231.84c-.4 2.06-.78 4.08-1.16 6.09-.22 1.19-.44 2.37-.67 3.55a1.17 1.17 0 0 1 -1.5 1.06c-3.11-.59-6.22-1.18-9.32-1.79-1-.2-1.2-.59-1-1.62.56-3 1.11-6 1.67-9 .21-1.13.63-1.43 1.75-1.22 3 .55 6 1.1 9 1.67.67.15 1.21.48 1.23 1.26zm-13.32 7.51c-.08.65.19.94.84 1.05 3 .54 6 1.09 9.06 1.7.8.16 1.11-.11 1.25-.85.55-3 1.09-6.05 1.7-9.07.15-.75-.14-1-.75-1.15s-1.31-.23-2-.36l-6.83-1.34c-1.21-.24-1.43 0-1.65 1.23s-.51 2.6-.76 3.91c-.27 1.62-.56 3.25-.86 4.88z"/><path d="m171.58 33.16a8.74 8.74 0 0 1 -2-.71c-2.31-.89-4.62-1.78-6.93-2.69-1.31-.51-1.45-.93-.93-2.21 1.1-2.75 2.17-5.51 3.26-8.26.42-1.07.81-1.27 1.87-.87q4.31 1.66 8.6 3.36a1.23 1.23 0 0 1 .81 1.86q-1.66 4.21-3.31 8.43c-.27.6-.5 1.24-1.37 1.09zm-9.68-5c-.11.68.11.93.49 1.08l1.85.74 6.93 2.68c.6.23 1 .18 1.31-.5 1.12-2.91 2.24-5.81 3.39-8.7.29-.71.06-1.08-.59-1.33l-8.53-3.34a1 1 0 0 0 -1.46.64c-.85 2.27-1.77 4.5-2.66 6.75-.29.73-.54 1.47-.73 1.98z"/><path d="m128.87 23.33c-1.54 0-3.08 0-4.63 0-1 0-1.39-.29-1.4-1.24 0-3.18 0-6.36 0-9.54a1.15 1.15 0 0 1 1.33-1.24h9.45c1 0 1.33.31 1.33 1.38v9.26c0 1-.34 1.37-1.35 1.37-1.6.02-3.15.01-4.73.01zm.18-11.65c-1.57 0-3.14 0-4.72 0-.73 0-1 .32-1 1.05q0 4.57 0 9.17c0 .77.29 1.1 1.07 1.09q4.59 0 9.18 0c.75 0 1-.36 1-1q0-4.59 0-9.17c0-.8-.37-1.13-1.19-1.1-1.39-.01-2.88-.04-4.34-.04z"/><path d="m240.78 104.1a1 1 0 0 1 -.83 1.14q-4.71 1.32-9.43 2.59c-.86.23-1.31-.28-1.51-1q-.94-3.45-1.87-6.9c-.21-.76-.4-1.52-.6-2.28a1 1 0 0 1 .79-1.39l9.43-2.59a1.05 1.05 0 0 1 1.41.78c.87 3.11 1.71 6.23 2.56 9.34.03.07.03.21.05.31zm-.39-.1c0-.06 0-.21-.08-.35-.8-2.91-1.64-5.81-2.4-8.73-.23-.9-.72-1-1.47-.81-2.91.78-5.82 1.59-8.73 2.36a.9.9 0 0 0 -.73 1.28c.81 3 1.63 5.93 2.43 8.91.21.8.67 1 1.42.73.49-.17 1-.3 1.48-.44l7.16-2c.47-.08.98-.19.92-.95z"/><path d="m28.79 90.58c-.12.42-.24.89-.38 1.35q-1.17 4-2.37 7.9c-.36 1.19-.76 1.42-1.92 1.07-3-.87-5.9-1.78-8.85-2.67a1.13 1.13 0 0 1 -.88-1.58c.92-3 1.8-6.08 2.7-9.12a1.17 1.17 0 0 1 1.62-.87c3.06.92 6.13 1.85 9.2 2.76a1.13 1.13 0 0 1 .88 1.16zm-4.05 10.08c.64 0 .78-.4.91-.85.87-2.92 1.72-5.85 2.63-8.76.26-.83-.06-1.16-.79-1.38l-8.59-2.54c-1-.3-1.19-.21-1.5.81-.87 2.85-1.7 5.72-2.58 8.58-.25.78-.07 1.17.72 1.4 2.21.63 4.4 1.3 6.6 2z"/><path d="m156.19 15.61c-.26 1.49-.49 2.86-.74 4.22-.34 1.81-.7 3.61-1 5.42-.2 1.07-.64 1.38-1.7 1.18l-9-1.66c-1.11-.21-1.42-.69-1.21-1.78q.87-4.48 1.72-9c.19-1 .66-1.36 1.64-1.18 3 .59 6.1 1.19 9.15 1.75.66.16 1.07.44 1.14 1.05zm-.47.43c.07-.6-.1-1-.78-1.08q-4.62-.84-9.24-1.73a.81.81 0 0 0 -1.09.75c-.56 3-1.07 6.06-1.7 9.06-.21 1 .23 1.21 1 1.35 1.21.25 2.43.45 3.64.69 1.66.31 3.31.65 5 1 1.06.2 1.42 0 1.57-.83.29-1.51.59-3 .87-4.53s.46-3.14.73-4.72z"/><path d="m198.18 204a1.08 1.08 0 0 1 .94.48c2.13 2.43 4.27 4.86 6.39 7.3a1 1 0 0 1 -.11 1.6q-3.6 3.18-7.21 6.35c-.68.59-1.21.61-1.82-.08q-3.26-3.64-6.45-7.36c-.49-.56-.27-1.12.25-1.59 1.37-1.22 2.74-2.46 4.12-3.68l2.66-2.33a2.12 2.12 0 0 1 1.23-.69zm-.86 15.78a1.37 1.37 0 0 0 .7-.4l1.35-1.21 5.55-4.92a.92.92 0 0 0 .09-1.49q-3.06-3.47-6.08-6.95c-.39-.45-.78-.62-1.3-.15q-3.57 3.13-7.15 6.25a.82.82 0 0 0 -.12 1.33l6.26 7.15a1.2 1.2 0 0 0 .7.41z"/><path d="m80.22 33.24a1.26 1.26 0 0 1 -.59 1c-2.81 1.66-5.61 3.34-8.41 5a1.09 1.09 0 0 1 -1.63-.43c-1.67-2.78-3.3-5.57-4.94-8.36a1.07 1.07 0 0 1 .43-1.62q4.15-2.5 8.35-4.94a1.06 1.06 0 0 1 1.61.44c1.63 2.76 3.28 5.51 4.91 8.26a6.16 6.16 0 0 1 .27.65zm-9.62 5.76a2.34 2.34 0 0 0 .58-.2q4-2.32 7.95-4.69a.94.94 0 0 0 .35-1.52c-.32-.47-.58-1-.87-1.48-1.27-2.16-2.55-4.31-3.83-6.47-.26-.45-.55-.81-1.15-.45-2.74 1.64-5.49 3.28-8.25 4.89-.62.36-.67.76-.33 1.34 1.6 2.66 3.18 5.34 4.77 8 .18.31.34.63.78.58z"/><path d="m169.6 235.08a1.11 1.11 0 0 1 -.74 1.07q-4.61 1.66-9.19 3.35a1.11 1.11 0 0 1 -1.57-.78c-1.1-3-2.17-6-3.23-8.94a1.12 1.12 0 0 1 .75-1.64c2.82-1 5.62-2.07 8.43-3.08 1.49-.54 1.75-.44 2.3 1 1.06 2.83 2.08 5.66 3.12 8.5.06.2.09.38.13.52zm-.43.16a7.42 7.42 0 0 0 -.64-2.07q-1.25-3.54-2.54-7.08c-.39-1.05-.57-1.1-1.61-.72q-4.17 1.53-8.35 3c-1 .36-1.08.52-.71 1.53 1 2.81 2.08 5.61 3.08 8.43a1 1 0 0 0 1.4.69c.6-.19 1.19-.44 1.78-.65 2.25-.81 4.5-1.61 6.74-2.43.42-.12.91-.25.85-.7z"/><path d="m231.32 178.38a4.81 4.81 0 0 1 -.21.57c-1.41 2.75-2.8 5.5-4.24 8.24-.59 1.12-1 1.22-2.11.64q-4-2-7.91-4.06c-1.12-.58-1.25-1.08-.68-2.19 1.37-2.63 2.72-5.27 4.07-7.91.58-1.12 1-1.25 2.08-.68 2.72 1.39 5.43 2.8 8.16 4.18a1.34 1.34 0 0 1 .84 1.21zm-9.63-5.25a.83.83 0 0 0 -1 .52q-2.13 4.17-4.27 8.32c-.31.61-.22 1 .42 1.31 2.69 1.38 5.36 2.79 8 4.18 1 .51 1.19.45 1.7-.52 1.39-2.68 2.76-5.38 4.15-8.07.35-.67.16-1.05-.47-1.38-2.75-1.41-5.48-2.83-8.23-4.25a1.25 1.25 0 0 0 -.3-.11z"/><path d="m202.78 40.05a1.72 1.72 0 0 1 1.21.63l6.66 6.16a1.17 1.17 0 0 1 .13 1.82c-2.15 2.34-4.29 4.68-6.46 7-.69.74-1.18.75-1.93.06l-7-6.47c-.58-.54-.57-1.08 0-1.74l4-4.41 2.4-2.6a1.11 1.11 0 0 1 .99-.45zm8 7.83c.05-.34-.2-.54-.42-.74-1.28-1.21-2.54-2.42-3.83-3.61-1-.92-2-1.8-3-2.73a.86.86 0 0 0 -1.45.07q-3.09 3.39-6.2 6.74c-.45.49-.53 1 0 1.42l6.86 6.33c.58.54 1.05.43 1.55-.11l6.26-6.81a.73.73 0 0 0 .21-.56z"/><path d="m74.05 218.44a1.49 1.49 0 0 1 -.28.82c-1.64 2.61-3.27 5.23-4.92 7.84-.68 1.08-1 1.12-2.13.42l-7.72-4.81c-.92-.58-1-1.05-.47-2 1.61-2.56 3.21-5.13 4.82-7.68.72-1.14 1.09-1.21 2.21-.51 2.59 1.62 5.17 3.24 7.77 4.85a1.26 1.26 0 0 1 .72 1.07zm-.34.09a1.36 1.36 0 0 0 -.74-.88l-7.67-4.82a1 1 0 0 0 -1.57.37q-2.37 3.87-4.81 7.69c-.41.64-.35 1.09.31 1.5q3.84 2.38 7.69 4.8a1 1 0 0 0 1.7-.4c1.57-2.58 3.2-5.13 4.8-7.69.11-.18.19-.37.29-.57z"/><path d="m219.13 79.2a1.08 1.08 0 0 1 .62-1.09c2.94-1.43 5.87-2.87 8.81-4.29a1 1 0 0 1 1.51.52q2.16 4.39 4.3 8.8a1.06 1.06 0 0 1 -.59 1.56l-8.71 4.3a1 1 0 0 1 -1.47-.44c-1.5-3-2.94-6-4.4-9a1.28 1.28 0 0 1 -.07-.36zm14.92 4.28a1.32 1.32 0 0 0 -.07-.27q-2.14-4.39-4.31-8.8a.62.62 0 0 0 -.92-.26c-2.92 1.41-5.82 2.84-8.73 4.26a.76.76 0 0 0 -.42 1.12q2.1 4.34 4.23 8.65a.74.74 0 0 0 1.11.42l8.56-4.18a.88.88 0 0 0 .55-.94z"/><path d="m179.28 231.66a1.23 1.23 0 0 1 -1.09-.62q-2.48-4.17-5-8.34a1.07 1.07 0 0 1 .46-1.66c2.76-1.63 5.51-3.28 8.26-4.92a1.1 1.1 0 0 1 1.69.44q2.44 4.08 4.84 8.2c.49.83.37 1.31-.47 1.81-2.74 1.66-5.5 3.28-8.26 4.91a3.08 3.08 0 0 1 -.43.18zm-5.8-9.55c0 .5.34.83.56 1.22 1.41 2.39 2.82 4.78 4.25 7.16.27.46.51 1.12 1.3.64q4.11-2.46 8.25-4.89a.78.78 0 0 0 .33-1.26q-2.41-4-4.8-8.1a.87.87 0 0 0 -1.3-.38c-2.7 1.59-5.39 3.21-8.09 4.82a.81.81 0 0 0 -.5.79z"/><path d="m87 237.13c-.21-.06-.45-.12-.67-.2-2.87-1.12-5.75-2.23-8.61-3.37-1-.37-1.15-.92-.77-1.87 1.1-2.79 2.19-5.57 3.28-8.36.48-1.21.85-1.4 2.08-.93q4.27 1.65 8.53 3.33c.85.33 1.09.82.78 1.63-1.15 3-2.33 6-3.49 9a1.23 1.23 0 0 1 -1.13.77zm4.26-9.93c.12-.68-.1-.94-.48-1.09l-1.69-.65-7.09-2.76c-.6-.23-1-.19-1.31.5-1.12 2.9-2.24 5.8-3.4 8.69a.89.89 0 0 0 .6 1.34c2.84 1.1 5.69 2.21 8.52 3.33.74.29 1.17.15 1.47-.64.85-2.26 1.77-4.5 2.66-6.75.31-.73.57-1.47.75-1.97z"/><path d="m124.28 244h-4.72c-1 0-1.31-.31-1.31-1.29q0-4.73 0-9.44c0-.9.37-1.27 1.26-1.27h9.49c.93 0 1.4.38 1.41 1.28q.06 4.72 0 9.44c0 1-.41 1.29-1.45 1.29zm-5.68-6v4.63c0 .77.31 1.09 1.09 1.08h9.16c.79 0 1.07-.35 1.06-1.11 0-3 0-6 0-9.07 0-.82-.32-1.13-1.14-1.13-3 0-6.05 0-9.07 0-.84 0-1.13.36-1.11 1.16.03 1.44.01 2.93.01 4.44z"/><path d="m50.47 215.3a1.47 1.47 0 0 1 -1.14-.51l-6.74-6.2a1.18 1.18 0 0 1 -.18-1.88q3.15-3.45 6.32-6.87c.87-.92 1.28-.93 2.2-.07q3.3 3.06 6.56 6.13c1 .91.95 1.21.07 2.16l-6.14 6.67c-.26.27-.52.6-.95.57zm-.1-.36c.46 0 .67-.33.91-.59l5.94-6.46c.69-.75.73-1 0-1.73q-3.24-3-6.53-6c-.83-.75-1.06-.73-1.79.06-2 2.21-4.08 4.44-6.14 6.66-.48.52-.39.93.1 1.38l6.62 6.17a1.55 1.55 0 0 0 .89.51z"/><path d="m238.92 158.3c-.25.88-.52 1.81-.79 2.74q-1 3.3-2 6.6c-.31 1-.76 1.31-1.84 1q-4.44-1.29-8.86-2.61c-1-.3-1.24-.81-.95-1.8q1.32-4.39 2.65-8.77c.35-1.14.76-1.33 1.88-1 2.89.87 5.78 1.75 8.68 2.6.67.2 1.17.45 1.23 1.24zm-10.27-3.53c-.7-.06-.91.16-1 .57-.91 3.07-1.84 6.13-2.76 9.19a.79.79 0 0 0 .62 1.11c2.92.87 5.84 1.74 8.77 2.58 1.09.32 1.24.23 1.57-.84.88-2.92 1.73-5.85 2.62-8.77.2-.68-.1-1-.67-1.12l-6.41-2c-1.01-.25-2-.49-2.74-.72z"/><path d="m217.51 55.68a1 1 0 0 1 .91.41c1.9 2.58 3.82 5.14 5.73 7.7a1.13 1.13 0 0 1 -.15 1.81q-3.76 2.82-7.56 5.62c-.93.69-1.34.6-2-.32l-5.46-7.34c-.64-.86-.61-1.33.25-2 2.48-1.87 5-3.71 7.49-5.57a1.12 1.12 0 0 1 .79-.31zm.08.37a1.16 1.16 0 0 0 -.81.3q-3.67 2.73-7.33 5.48a1 1 0 0 0 -.22 1.54q2.77 3.63 5.47 7.33c.46.64.88.69 1.5.22 2.41-1.81 4.84-3.6 7.27-5.4.71-.52.79-1 .26-1.66q-2.64-3.57-5.3-7.13c-.23-.3-.43-.65-.84-.68z"/><path d="m211.34 189.46c.4 0 .72.27 1 .52l7.12 5.59c.84.66.91 1.07.28 1.89-1.91 2.45-3.82 4.91-5.74 7.35-.65.83-1.09.91-1.92.28q-3.69-2.84-7.35-5.73c-.88-.7-.91-1.06-.21-2 1.89-2.47 3.8-4.92 5.7-7.38a1.33 1.33 0 0 1 1.12-.52zm8.36 7.18c.08-.62-.46-.81-.82-1.09-2.12-1.68-4.28-3.33-6.41-5-1.17-.93-1.41-.93-2.32.23l-5.15 6.61c-.6.77-.54 1.24.22 1.83l7 5.43c.83.64 1 .63 1.7-.21 1.83-2.35 3.66-4.72 5.49-7.08a1 1 0 0 0 .29-.72z"/><path d="m242.59 137.75-.84 7.91c0 .24-.07.48-.08.72-.08 1.44-.5 1.79-1.95 1.63q-4.31-.47-8.63-.9c-1.26-.13-1.58-.56-1.44-1.84.33-3 .63-5.93.93-8.9.12-1.18.52-1.44 1.74-1.3 2.57.3 5.15.53 7.73.8.54 0 1.09.08 1.62.18.96.19.98.95.92 1.7zm-12.59 7.5c0 1.29.05 1.39 1.33 1.51.6.05 1.2 0 1.8.11q3.45.45 6.92.79c.93.09 1.15-.17 1.23-1.12s.21-2.1.31-3.15l.6-5.76c.08-.81-.19-1.18-1.08-1.26-3-.28-6.06-.63-9.08-1-.67-.08-1 .23-1.09.79-.31 3.03-.6 6.06-.94 9.09z"/><path d="m40.27 49.89a1.58 1.58 0 0 1 .81.37c2.4 1.88 4.82 3.74 7.22 5.62 1 .76 1 1.2.29 2.19q-2.82 3.66-5.67 7.3a1.14 1.14 0 0 1 -1.8.23c-2.54-2-5.1-4-7.65-6a1 1 0 0 1 -.17-1.59l6-7.64a1.06 1.06 0 0 1 .97-.48zm8.36 7.21c0-.47-.28-.71-.59-1l-7-5.43c-.85-.67-1.07-.64-1.76.25-1.81 2.33-3.59 4.69-5.44 7-.53.66-.5 1.08.14 1.57 2.45 1.9 4.9 3.82 7.35 5.73a.8.8 0 0 0 1.3-.17c1.89-2.43 3.81-4.83 5.71-7.25a1.12 1.12 0 0 0 .29-.7z"/><path d="m22.78 138c0 1.76-.18 1.94-1.74 2-2.59.18-5.17.44-7.75.66-.46 0-.91.06-1.36.06a1 1 0 0 1 -1.12-1.06q-.29-3.19-.55-6.4c-.08-1-.15-2-.26-3.06s.21-1.4 1.12-1.48c2.76-.25 5.52-.51 8.29-.71 2.34-.16 2.38-.12 2.69 2.23.24 1.8.34 3.6.5 5.41.07.88.13 1.72.18 2.35zm-3-9.61c-2.62.23-5.41.52-8.2.7-.95.06-1.2.4-1.12 1.27q.39 4.32.72 8.64c.11 1.36.3 1.51 1.58 1.39q4.19-.39 8.37-.7c1.21-.09 1.42-.2 1.33-1.39-.21-3-.47-6.06-.72-9.1a.78.78 0 0 0 -.88-.81z"/><path d="m35.7 199.67a1 1 0 0 1 -.94-.43q-2.88-3.9-5.79-7.78a1.07 1.07 0 0 1 .27-1.71q3.69-2.77 7.41-5.53c1.1-.81 1.43-.73 2.28.41q2.67 3.56 5.3 7.13c.66.89.58 1.44-.29 2.09q-3.61 2.72-7.27 5.41c-.29.21-.57.48-.97.41zm8.56-6.94a.85.85 0 0 0 -.18-.59l-5.77-7.67a.72.72 0 0 0 -1.16-.15l-7.64 5.68c-.41.31-.66.68-.25 1.23 1.89 2.51 3.75 5 5.62 7.55a1 1 0 0 0 1.54.26l7.32-5.49c.26-.22.53-.43.52-.82z"/><path d="m117.71 22.23a1.06 1.06 0 0 1 -1 1.33c-3.13.51-6.24 1.07-9.37 1.56-1 .16-1.38-.13-1.57-1.17-.47-2.73-1-5.46-1.34-8.21-.32-2.32-.26-2.34 2.06-2.73l7.68-1.27c1.5-.25 1.82 0 2.08 1.56.46 2.77.93 5.53 1.39 8.3.04.2.05.4.07.63zm-2.83-10.23-9.62 1.6c-.62.1-.71.58-.63 1.11s.23 1.24.33 1.86q.63 3.7 1.25 7.39c.09.53.34.86.9.77 3.12-.5 6.23-1 9.36-1.51.81-.13 1-.57.85-1.27-.18-1-.36-2.07-.53-3.11-.31-1.93-.61-3.87-.93-5.8-.09-.5-.18-1.1-.98-1.04z"/><path d="m243.11 123.94c.06 2.59-.09 2.69-2.11 2.82-2.77.19-5.54.44-8.3.69-.89.08-1.48-.29-1.55-1.12-.26-3.16-.52-6.32-.74-9.48-.07-1.08.26-1.42 1.33-1.51l8.84-.73c1.42-.11 1.7.13 1.83 1.55.25 2.84.5 5.6.7 7.78zm-.3 1.32c-.28-3.27-.53-6.21-.76-9.16-.08-1-.31-1.23-1.29-1.13-2.91.29-5.82.58-8.75.72-1.11 0-1.32.25-1.24 1.4.22 3 .47 6.07.74 9.11a.86.86 0 0 0 1.11.86c1-.15 2.1-.2 3.16-.29 2-.17 4-.39 5.95-.49 1-.04 1.17-.53 1.08-1.02z"/><path d="m194.94 33.8a1.28 1.28 0 0 1 -.28.75c-1.62 2.59-3.23 5.18-4.86 7.76-.69 1.09-1.08 1.16-2.14.51l-7.55-4.68c-1.13-.7-1.22-1.15-.51-2.29q2.4-3.85 4.75-7.61c.65-1 1-1.08 2.07-.44l7.58 4.75c.51.3 1 .6.94 1.25zm-9.52-5.95c-.43-.07-.59.35-.79.67-1.63 2.58-3.24 5.17-4.87 7.75-.32.5-.32.92.18 1.25l8.14 5.11a.84.84 0 0 0 1.29-.35q2.48-4 5-7.91a.84.84 0 0 0 -.37-1.37c-2.52-1.57-5-3.16-7.52-4.73a2.3 2.3 0 0 0 -1.06-.42z"/><path d="m50.79 39.51a44.26 44.26 0 0 1 4.4-4 1.09 1.09 0 0 1 1.67.23q3.14 3.56 6.27 7.12a1.08 1.08 0 0 1 -.06 1.73c-2.36 2.11-4.73 4.22-7.12 6.3-.79.68-1.27.64-1.94-.12q-3.12-3.52-6.2-7.08c-.67-.78-.59-1.22.21-1.9a19.59 19.59 0 0 1 2.77-2.29c.06.38-.25.53-.46.73-.66.61-1.32 1.24-2 1.81s-.65 1-.1 1.57c2.07 2.31 4.1 4.67 6.14 7a.77.77 0 0 0 1.25 0q3.52-3.12 7.08-6.19c.62-.54.5-1 0-1.53q-3-3.42-6-6.88a.91.91 0 0 0 -1.55-.01 19.42 19.42 0 0 1 -2.09 1.86c-.77.51-1.22 1.5-2.27 1.65z"/><path d="m23.52 110.41c-.29 2.84-.6 5.87-.93 8.9a1.09 1.09 0 0 1 -1.32 1c-3.12-.33-6.24-.68-9.35-1-1.11-.12-1.4-.4-1.3-1.51.24-2.7.55-5.4.82-8.1 0-.3.08-.6.09-.9.07-1.22.52-1.61 1.75-1.48l8.73.91c1.4.17 1.57.39 1.51 2.18zm-.29-.78c.1-.46-.18-.86-1.07-.95-3-.3-6.05-.67-9.08-1-.91-.1-1.11.18-1.19 1.15-.15 1.69-.35 3.36-.52 5-.13 1.35-.27 2.7-.39 4-.05.56.14 1 .76 1 2.82.29 5.63.63 8.46.89 1.78.17 1.85.13 2.09-1.68.36-2.59.6-5.32.94-8.41z"/><path d="m138 141.21h-22.86c-1.57 0-2.08-.5-2.08-2.07v-22.89c0-1.62.5-2.11 2.14-2.11h22.8c1.63 0 2.12.5 2.12 2.12v22.81c.01 1.64-.48 2.14-2.12 2.14z"/><path d="m22.9 147.85a.79.79 0 0 1 .83.68c.84 3.06 1.68 6.11 2.51 9.17a.82.82 0 0 1 -.66 1.15c-3 .79-5.94 1.63-8.91 2.42-.72.2-1.17 0-1.39-.84-.75-2.92-1.58-5.82-2.4-8.72-.2-.68 0-1.11.68-1.31l9.07-2.51a1.17 1.17 0 0 1 .27-.04z"/><path d="m31.73 82.25a1.31 1.31 0 0 1 -.73-.25c-2.66-1.38-5.3-2.78-8-4.13-.75-.38-.85-.79-.47-1.5 1.37-2.63 2.71-5.27 4.07-7.9.49-1 .82-1.08 1.72-.61 2.68 1.38 5.35 2.8 8 4.17.69.35.75.75.43 1.38-1.46 2.78-2.9 5.58-4.33 8.37a.68.68 0 0 1 -.69.47z"/><path d="m138.46 243.29c-.82.07-1-.32-1.12-.85q-.74-4.5-1.45-9c-.1-.65-.09-1.18.78-1.31 3.13-.49 6.24-1 9.36-1.55.59-.09.87.24 1 .82.4 2.46.82 4.92 1.23 7.39.11.62.13 1.26.28 1.87s-.18 1-.78 1.14c-2.29.39-4.58.76-6.86 1.13-.9.14-1.76.26-2.44.36z"/><path d="m28.61 166.74a.75.75 0 0 1 .8.49c1.38 2.85 2.78 5.7 4.17 8.55.36.75-.14 1.05-.69 1.31l-7.08 3.45c-2.29 1.13-1.91 1.18-3-1s-2.29-4.66-3.42-7c-.46-1-.37-1.28.56-1.73l7.9-3.81a1.41 1.41 0 0 1 .76-.26z"/><path d="m84.07 20.51c-.09-.88.43-1 .83-1.13 2.24-.83 4.49-1.62 6.74-2.43.57-.21 1.13-.43 1.7-.63a1 1 0 0 1 1.46.7c1 2.88 2.09 5.74 3.14 8.6.2.54.23 1-.46 1.22q-4.53 1.62-9 3.31c-.83.31-1-.3-1.22-.83-.61-1.61-1.17-3.24-1.75-4.86-.4-1.08-.81-2.15-1.2-3.23-.14-.31-.21-.64-.24-.72z"/><path d="m97.46 239.35c.3-1.63.59-3.26.9-4.88.25-1.31.54-2.6.76-3.91s.44-1.47 1.65-1.23l6.83 1.34c.65.13 1.31.22 2 .36s.9.4.75 1.15c-.61 3-1.15 6-1.7 9.07-.14.74-.45 1-1.25.85-3-.61-6-1.16-9.06-1.7-.69-.11-.96-.4-.88-1.05z"/><path d="m161.9 28.16c.19-.51.44-1.25.73-2 .89-2.25 1.81-4.48 2.66-6.75a1 1 0 0 1 1.46-.64l8.53 3.34c.65.25.88.62.59 1.33-1.15 2.89-2.27 5.79-3.39 8.7-.27.68-.71.73-1.31.5l-6.93-2.64-1.85-.74c-.39-.17-.6-.42-.49-1.1z"/><path d="m129.05 11.68h4.36c.82 0 1.19.3 1.19 1.1q0 4.57 0 9.17c0 .68-.29 1-1 1q-4.59 0-9.18 0c-.78 0-1.08-.32-1.07-1.09q0-4.59 0-9.17c0-.73.3-1.05 1-1.05 1.56.05 3.13.04 4.7.04z"/><path d="m240.39 104c.06.76-.45.87-.92 1l-7.16 2c-.49.14-1 .27-1.48.44-.75.27-1.21.07-1.42-.73-.8-3-1.62-5.94-2.43-8.91a.9.9 0 0 1 .73-1.28c2.91-.77 5.82-1.58 8.73-2.36.75-.2 1.24-.09 1.47.81.76 2.92 1.6 5.82 2.4 8.73.04.09.07.24.08.3z"/><path d="m24.74 100.66-2.6-.78c-2.2-.66-4.39-1.33-6.6-2-.79-.23-1-.62-.72-1.4.88-2.86 1.71-5.73 2.58-8.58.31-1 .51-1.11 1.5-.81l8.59 2.54c.73.22 1.05.55.79 1.38-.91 2.91-1.76 5.84-2.63 8.76-.13.49-.27.94-.91.89z"/><path d="m155.72 16c-.27 1.54-.53 3.09-.81 4.63s-.58 3-.87 4.53c-.15.81-.51 1-1.57.83-1.66-.3-3.31-.64-5-1-1.21-.24-2.43-.44-3.64-.69-.72-.14-1.16-.39-1-1.35.63-3 1.14-6 1.7-9.06a.81.81 0 0 1 1.09-.75q4.62.88 9.24 1.73c.76.21.93.57.86 1.13z"/><path d="m197.32 219.8a1.2 1.2 0 0 1 -.7-.39l-6.26-7.15a.82.82 0 0 1 .12-1.33q3.59-3.1 7.15-6.25c.52-.47.91-.3 1.3.15q3 3.48 6.08 6.95a.92.92 0 0 1 -.09 1.49l-5.55 4.92-1.37 1.21a1.37 1.37 0 0 1 -.68.4z"/><path d="m70.6 39c-.44 0-.61-.29-.78-.57-1.59-2.67-3.17-5.35-4.77-8-.34-.58-.29-1 .33-1.34 2.76-1.61 5.51-3.25 8.25-4.89.6-.36.89 0 1.15.45 1.28 2.16 2.56 4.31 3.83 6.47.29.49.55 1 .87 1.48a.94.94 0 0 1 -.35 1.52q-4 2.37-7.95 4.69a2.34 2.34 0 0 1 -.58.19z"/><path d="m169.17 235.24c.06.45-.43.58-.85.73-2.24.82-4.49 1.62-6.74 2.43-.59.21-1.18.46-1.78.65a1 1 0 0 1 -1.4-.69c-1-2.82-2.06-5.62-3.08-8.43-.37-1-.28-1.17.71-1.53q4.18-1.5 8.35-3c1-.38 1.22-.33 1.61.72q1.29 3.54 2.54 7.08a7.42 7.42 0 0 1 .64 2.04z"/><path d="m221.69 173.13a1.25 1.25 0 0 1 .34.11c2.75 1.42 5.48 2.84 8.23 4.25.63.33.82.71.47 1.38-1.39 2.69-2.76 5.39-4.15 8.07-.51 1-.74 1-1.7.52-2.69-1.39-5.36-2.8-8-4.18-.64-.32-.73-.7-.42-1.31q2.15-4.16 4.27-8.32a.83.83 0 0 1 .96-.52z"/><path d="m210.76 47.88a.73.73 0 0 1 -.28.56l-6.26 6.81c-.5.54-1 .65-1.55.11l-6.86-6.36c-.51-.47-.43-.93 0-1.42q3.12-3.36 6.2-6.74a.86.86 0 0 1 1.45-.07c1 .93 2 1.81 3 2.73 1.29 1.19 2.55 2.4 3.83 3.61.27.23.52.43.47.77z"/><path d="m73.71 218.53c-.1.2-.18.39-.29.57-1.6 2.56-3.23 5.11-4.8 7.69a1 1 0 0 1 -1.7.4q-3.84-2.41-7.69-4.8c-.66-.41-.72-.86-.31-1.5q2.44-3.82 4.81-7.69a1 1 0 0 1 1.57-.37l7.7 4.82a1.36 1.36 0 0 1 .71.88z"/><path d="m234.05 83.48a.88.88 0 0 1 -.55.94l-8.56 4.18a.74.74 0 0 1 -1.11-.42q-2.13-4.32-4.23-8.65a.76.76 0 0 1 .42-1.12c2.91-1.42 5.81-2.85 8.73-4.26a.62.62 0 0 1 .92.26q2.16 4.41 4.31 8.8a1.32 1.32 0 0 1 .07.27z"/><path d="m173.48 222.11a.81.81 0 0 1 .5-.79c2.7-1.61 5.39-3.23 8.09-4.82a.87.87 0 0 1 1.3.38q2.38 4.05 4.8 8.1a.78.78 0 0 1 -.33 1.26q-4.14 2.43-8.25 4.89c-.79.48-1-.18-1.3-.64-1.43-2.38-2.84-4.77-4.25-7.16-.22-.39-.56-.72-.56-1.22z"/><path d="m91.29 227.2c-.18.5-.44 1.24-.72 2-.89 2.25-1.81 4.49-2.66 6.75-.3.79-.73.93-1.47.64-2.83-1.12-5.68-2.23-8.52-3.33a.89.89 0 0 1 -.6-1.34c1.16-2.89 2.28-5.79 3.4-8.69.27-.69.71-.73 1.31-.5l7.09 2.76 1.69.65c.38.12.6.38.48 1.06z"/><path d="m118.6 238c0-1.48 0-3 0-4.44 0-.8.27-1.16 1.11-1.16h9.07c.82 0 1.14.31 1.14 1.13v9.07c0 .76-.27 1.12-1.06 1.11-3 0-6.11 0-9.16 0-.78 0-1.1-.31-1.09-1.08.01-1.57-.01-3.12-.01-4.63z"/><path d="m50.37 214.94a1.55 1.55 0 0 1 -.9-.52l-6.62-6.17c-.49-.45-.58-.86-.1-1.38 2.06-2.22 4.09-4.45 6.14-6.66.73-.79 1-.81 1.79-.06q3.28 3 6.53 6c.74.68.7 1 0 1.73l-5.94 6.46c-.27.27-.44.6-.9.6z"/><path d="m228.65 154.77c.74.21 1.73.47 2.71.76l6.41 2c.57.17.87.44.67 1.12-.89 2.92-1.74 5.85-2.62 8.77-.33 1.07-.48 1.16-1.57.84-2.93-.84-5.85-1.71-8.77-2.58a.79.79 0 0 1 -.62-1.11c.92-3.06 1.85-6.12 2.76-9.19.12-.45.38-.67 1.03-.61z"/><path d="m217.59 56.05c.38 0 .61.38.84.68q2.67 3.56 5.3 7.13c.53.71.45 1.14-.26 1.66-2.43 1.8-4.86 3.59-7.27 5.4-.62.47-1 .42-1.5-.22q-2.7-3.7-5.47-7.33a1 1 0 0 1 .22-1.54q3.66-2.74 7.33-5.48a1.16 1.16 0 0 1 .81-.3z"/><path d="m219.7 196.64a1 1 0 0 1 -.33.72c-1.83 2.36-3.66 4.73-5.49 7.08-.65.84-.87.85-1.7.21l-7-5.43c-.76-.59-.82-1.06-.22-1.83l5.19-6.63c.91-1.16 1.15-1.16 2.32-.23 2.13 1.69 4.29 3.34 6.41 5 .36.3.9.47.82 1.11z"/><path d="m230 145.25c.31-3 .6-6.06.94-9.08.06-.56.42-.87 1.09-.79 3 .36 6.05.71 9.08 1 .89.08 1.16.45 1.08 1.26l-.6 5.76c-.1 1.05-.23 2.1-.31 3.15s-.3 1.21-1.23 1.12q-3.47-.34-6.92-.79c-.6-.08-1.2-.06-1.8-.11-1.25-.13-1.33-.23-1.33-1.52z"/><path d="m48.63 57.1a1.12 1.12 0 0 1 -.3.74c-1.9 2.42-3.82 4.82-5.71 7.25a.8.8 0 0 1 -1.3.17c-2.45-1.91-4.9-3.83-7.35-5.73-.64-.49-.67-.91-.14-1.57 1.85-2.3 3.63-4.66 5.44-7 .69-.89.91-.92 1.76-.25l7 5.43c.32.25.65.49.6.96z"/><path d="m19.74 128.38h1.08a.78.78 0 0 1 .88.81c.25 3 .51 6.07.72 9.1.09 1.19-.12 1.3-1.33 1.39q-4.18.31-8.37.7c-1.28.12-1.47 0-1.58-1.39q-.33-4.32-.72-8.64c-.08-.87.17-1.21 1.12-1.27 2.79-.18 5.58-.47 8.2-.7z"/><path d="m44.26 192.73c0 .39-.26.6-.52.8l-7.32 5.47a1 1 0 0 1 -1.54-.26c-1.87-2.52-3.73-5-5.62-7.55-.41-.55-.16-.92.25-1.23l7.64-5.66a.72.72 0 0 1 1.16.15l5.77 7.67a.85.85 0 0 1 .18.61z"/><path d="m114.88 12c.8-.09.89.51 1 1 .32 1.93.62 3.87.93 5.8.17 1 .35 2.07.53 3.11.12.7 0 1.14-.85 1.27-3.13.48-6.24 1-9.36 1.51-.56.09-.81-.24-.9-.77q-.63-3.62-1.23-7.32c-.1-.62-.23-1.24-.33-1.86s0-1 .63-1.11z"/><path d="m242.81 125.26c.09.49-.08 1-1.08 1-2 .1-4 .32-5.95.49-1.06.09-2.11.14-3.16.29a.86.86 0 0 1 -1.11-.86c-.27-3-.52-6.07-.74-9.11-.08-1.15.13-1.35 1.24-1.4 2.93-.14 5.84-.43 8.75-.72 1-.1 1.21.14 1.29 1.13.23 2.97.48 5.92.76 9.18z"/><path d="m185.42 27.85a2.3 2.3 0 0 1 1.08.44c2.51 1.57 5 3.16 7.52 4.73a.84.84 0 0 1 .32 1.35q-2.51 4-5 7.91a.84.84 0 0 1 -1.29.35l-8.14-5.11c-.5-.33-.5-.75-.18-1.25 1.63-2.58 3.24-5.17 4.87-7.75.23-.32.4-.74.82-.67z"/><path d="m50.79 39.51c1.05-.15 1.5-1.14 2.27-1.68a19.42 19.42 0 0 0 2.09-1.83.91.91 0 0 1 1.53.09q3 3.45 6 6.88c.48.54.6 1 0 1.53q-3.55 3.06-7.08 6.19a.77.77 0 0 1 -1.25 0c-2-2.34-4.07-4.7-6.14-7-.55-.62-.54-1 .1-1.57s1.36-1.2 2-1.81c.21-.2.52-.35.46-.73z"/><path d="m23.23 109.63c-.34 3.09-.58 5.82-.94 8.54-.24 1.83-.29 1.83-2.09 1.68-2.83-.26-5.64-.6-8.46-.89-.62-.07-.81-.46-.76-1 .12-1.35.26-2.7.39-4 .17-1.68.37-3.35.52-5 .08-1 .28-1.25 1.19-1.15 3 .31 6 .68 9.08 1 .89-.04 1.17.36 1.07.82z"/><path d="m117.19 66c.06.77-.47 1.08-1.08 1.1a1.13 1.13 0 0 1 -1.11-1.17 1.27 1.27 0 0 1 1.2-1.18 1.06 1.06 0 0 1 .99 1.25z" stroke="#fff" stroke-miterlimit="10"/><path d="m80.28 65.9c0 .81-.45 1.2-1.09 1.18a1.17 1.17 0 0 1 -1.13-1.15 1.32 1.32 0 0 1 1.22-1.19 1.12 1.12 0 0 1 1 1.16z" stroke="#fff" stroke-miterlimit="10"/><path d="m117.19 72.84c0 .78-.38 1.08-1.1 1.07a1 1 0 0 1 -1.1-1.1 1.11 1.11 0 0 1 1.16-1.11 1 1 0 0 1 1.04 1.14z" stroke="#fff" stroke-miterlimit="10"/><path d="m139.65 65.89c-.07-.74.44-1.06 1.06-1.1a1.14 1.14 0 0 1 1.16 1.1 1.27 1.27 0 0 1 -1.18 1.21 1.06 1.06 0 0 1 -1.04-1.21z" stroke="#fff" stroke-miterlimit="10"/><path d="m72 65.88c-.06-.77.48-1.07 1.09-1.08a1.12 1.12 0 0 1 1.13 1.13 1.27 1.27 0 0 1 -1.22 1.17 1.05 1.05 0 0 1 -1-1.22z" stroke="#fff" stroke-miterlimit="10"/><path d="m154.1 66c.08.74-.44 1.06-1 1.1a1.14 1.14 0 0 1 -1.17-1.1 1.27 1.27 0 0 1 1.17-1.21 1.07 1.07 0 0 1 1 1.21z" stroke="#fff" stroke-miterlimit="10"/><path d="m85.37 73.91a1 1 0 0 1 -1.12-1 1.11 1.11 0 0 1 1.11-1.16 1 1 0 0 1 1.1 1.1c.01.68-.29 1.07-1.09 1.06z" stroke="#fff" stroke-miterlimit="10"/><path d="m72 72.9a1.07 1.07 0 0 1 1-1.22 1.28 1.28 0 0 1 1.17 1.22c-.11.64-.5 1.13-1.17 1.09s-1.07-.36-1-1.09z" stroke="#fff" stroke-miterlimit="10"/><path d="m154.1 72.89a1 1 0 0 1 -1.1 1.11 1.2 1.2 0 0 1 -1.09-1.1 1.27 1.27 0 0 1 1.17-1.22 1.05 1.05 0 0 1 1.02 1.21z" stroke="#fff" stroke-miterlimit="10"/><path d="m139.65 72.9a1.06 1.06 0 0 1 1-1.21 1.26 1.26 0 0 1 1.21 1.17 1.13 1.13 0 0 1 -1.12 1.14c-.61 0-1.14-.33-1.09-1.1z" stroke="#fff" stroke-miterlimit="10"/><path d="m123.37 72.85a1.06 1.06 0 0 1 -1.14 1.15 1.21 1.21 0 0 1 -1.08-1.11 1.25 1.25 0 0 1 1.16-1.21 1.05 1.05 0 0 1 1.06 1.17z" stroke="#fff" stroke-miterlimit="10"/><path d="m86.46 65.93c.06.7-.38 1.06-1 1.17s-1.27-.66-1.21-1.19a1.26 1.26 0 0 1 1.15-1.16 1.1 1.1 0 0 1 1.06 1.18z" stroke="#fff" stroke-miterlimit="10"/><path d="m55.72 65.88a1.06 1.06 0 0 1 -1.08 1.17 1.13 1.13 0 0 1 0-2.25 1 1 0 0 1 1.08 1.08z" stroke="#fff" stroke-miterlimit="10"/><path d="m148.06 65.88c0 .53-.65 1.28-1.18 1.22a1.17 1.17 0 0 1 -.09-2.34c.52-.11 1.21.56 1.27 1.12z" stroke="#fff" stroke-miterlimit="10"/><path d="m102.74 73c0-.93.42-1.25 1-1.34s1.23.63 1.22 1.17a1.31 1.31 0 0 1 -1.22 1.17 1.07 1.07 0 0 1 -1-1z" stroke="#fff" stroke-miterlimit="10"/><path d="m80.42 72.81a1.31 1.31 0 0 1 -1.25 1.19 1.21 1.21 0 0 1 -1.11-1.1 1.29 1.29 0 0 1 1.18-1.23 1.34 1.34 0 0 1 1.18 1.14z" stroke="#fff" stroke-miterlimit="10"/><path d="m102.74 66a1 1 0 0 1 1-1.19 1.15 1.15 0 0 1 1.26 1.04c.06.57-.62 1.3-1.16 1.22s-1.17-.36-1.1-1.07z" stroke="#fff" stroke-miterlimit="10"/><path d="m123.37 65.87a1.07 1.07 0 0 1 -1.06 1.23c-.54.06-1.18-.67-1.18-1.24a1.32 1.32 0 0 1 1.19-1.09 1.05 1.05 0 0 1 1.05 1.1z" stroke="#fff" stroke-miterlimit="10"/><path d="m133.47 72.88a1 1 0 0 1 1.09-1.15 1.13 1.13 0 1 1 0 2.26 1 1 0 0 1 -1.09-1.11z" stroke="#fff" stroke-miterlimit="10"/><path d="m146.87 73.91a1 1 0 0 1 -1.15-1.09 1.18 1.18 0 0 1 1.15-1.14 1.28 1.28 0 0 1 1.18 1.22c-.12.65-.48 1.1-1.18 1.01z" stroke="#fff" stroke-miterlimit="10"/><path d="m111.16 72.85a1.33 1.33 0 0 1 -1.16 1.15c-.54.08-1.19-.61-1.2-1.21a1.32 1.32 0 0 1 1.2-1.11 1.35 1.35 0 0 1 1.16 1.17z" stroke="#fff" stroke-miterlimit="10"/><path d="m110 67.11a1.3 1.3 0 0 1 -1.22-1.23 1.21 1.21 0 0 1 1.09-1.12 1.27 1.27 0 0 1 1.24 1.16 1.31 1.31 0 0 1 -1.11 1.19z" stroke="#fff" stroke-miterlimit="10"/><path d="m55.72 72.83c0 .71-.53 1.29-1.15 1.17a1.15 1.15 0 0 1 .08-2.29 1 1 0 0 1 1.07 1.12z" stroke="#fff" stroke-miterlimit="10"/><path d="m65.83 66c0-.71.46-1.27 1.12-1.18a1.15 1.15 0 0 1 0 2.29 1 1 0 0 1 -1.12-1.11z" stroke="#fff" stroke-miterlimit="10"/><path d="m160.28 72.79c0 .78-.44 1.21-1.09 1.2a1.12 1.12 0 0 1 -1.15-1.1 1.3 1.3 0 0 1 1.18-1.21 1.1 1.1 0 0 1 1.06 1.11z" stroke="#fff" stroke-miterlimit="10"/><path d="m65.83 72.88a1 1 0 0 1 1.08-1.17 1.16 1.16 0 0 1 1.16 1.12 1.22 1.22 0 0 1 -1.2 1.17c-.63-.1-1.13-.39-1.04-1.12z" stroke="#fff" stroke-miterlimit="10"/><path d="m59.65 66a1.13 1.13 0 1 1 2.25-.09 1.13 1.13 0 0 1 -2.25.09z" stroke="#fff" stroke-miterlimit="10"/><path d="m129.54 66.12a1 1 0 0 1 -1.15.93 1.06 1.06 0 0 1 -1.09-1.14 1.12 1.12 0 0 1 1.19-1.14 1.18 1.18 0 0 1 1.05 1.35z" stroke="#fff" stroke-miterlimit="10"/><path d="m135.72 65.87a1.13 1.13 0 0 1 -1.08 1.2 1.06 1.06 0 0 1 -1.17-1.07 1 1 0 0 1 1.13-1.16 1 1 0 0 1 1.12 1.03z" stroke="#fff" stroke-miterlimit="10"/><path d="m98.81 66a1.13 1.13 0 0 1 -2.25-.1 1.13 1.13 0 1 1 2.25.1z" stroke="#fff" stroke-miterlimit="10"/><path d="m92.63 66a1 1 0 0 1 -1.13 1.09 1.13 1.13 0 0 1 -1.11-1.16 1.12 1.12 0 1 1 2.24.07z" stroke="#fff" stroke-miterlimit="10"/><path d="m92.63 72.89a1.12 1.12 0 1 1 -2.24-.07 1.16 1.16 0 0 1 1.12-1.14 1.13 1.13 0 0 1 1.12 1.21z" stroke="#fff" stroke-miterlimit="10"/><path d="m129.54 72.88a1 1 0 0 1 -1.11 1.12 1.07 1.07 0 0 1 -1.13-1.12 1.13 1.13 0 0 1 1.08-1.18 1.12 1.12 0 0 1 1.16 1.18z" stroke="#fff" stroke-miterlimit="10"/><path d="m61.9 72.9a1.12 1.12 0 1 1 -2.24-.09c.05-.67.41-1.14 1.11-1.11a1.1 1.1 0 0 1 1.13 1.2z" stroke="#fff" stroke-miterlimit="10"/><path d="m98.81 72.88a1.12 1.12 0 1 1 -2.24-.06 1.11 1.11 0 0 1 1.1-1.15 1.16 1.16 0 0 1 1.14 1.21z" stroke="#fff" stroke-miterlimit="10"/><path d="m160.27 66.05a1 1 0 0 1 -1.09 1 1.18 1.18 0 0 1 -1.18-1.11 1.38 1.38 0 0 1 1.21-1.2 1.2 1.2 0 0 1 1.06 1.31z" stroke="#fff" stroke-miterlimit="10"/><path d="m166.46 66a1.09 1.09 0 0 1 -1.16 1 1 1 0 0 1 -1.08-1.14 1 1 0 0 1 1.07-1.15 1.12 1.12 0 0 1 1.17 1.29z" stroke="#fff" stroke-miterlimit="10"/><path d="m166.46 72.88a1.13 1.13 0 1 1 -2.25-.06 1.11 1.11 0 0 1 1.1-1.15 1.16 1.16 0 0 1 1.15 1.21z" stroke="#fff" stroke-miterlimit="10"/><path d="m86 135.53h-42.8v-42.81h42.8z"/><path d="m206.87 179.46h-36.23v-36.23h36.23z"/><path d="m62.07 167.08h-20.38v-20.38h20.38z"/></g><path d="m327.7 150.59a1.13 1.13 0 0 1 .8.32l1.86 2a30.53 30.53 0 0 1 -4.48 4 27.67 27.67 0 0 1 -5.3 3 31.47 31.47 0 0 1 -6.31 1.92 39.16 39.16 0 0 1 -7.54.67 32.21 32.21 0 0 1 -12.59-2.4 28 28 0 0 1 -9.81-6.82 31.35 31.35 0 0 1 -6.33-10.73 40.4 40.4 0 0 1 -2.29-13.92 38.45 38.45 0 0 1 2.29-13.73 31.34 31.34 0 0 1 6.64-10.67 29.59 29.59 0 0 1 10.23-6.92 34.3 34.3 0 0 1 13.13-2.45 37.12 37.12 0 0 1 6.58.54 29.43 29.43 0 0 1 5.58 1.54 26.2 26.2 0 0 1 4.89 2.5 37.8 37.8 0 0 1 4.48 3.45l-1.41 2.11a1.32 1.32 0 0 1 -1.17.56 2 2 0 0 1 -1.07-.49c-.44-.33-1-.74-1.66-1.22s-1.48-1-2.43-1.59a20.18 20.18 0 0 0 -3.38-1.58 28.19 28.19 0 0 0 -4.54-1.22 31 31 0 0 0 -5.87-.46 28.77 28.77 0 0 0 -11 2.05 24.72 24.72 0 0 0 -8.68 5.93 27 27 0 0 0 -5.68 9.34 35.4 35.4 0 0 0 -2 12.31 36.38 36.38 0 0 0 2 12.52 27 27 0 0 0 5.56 9.32 24.1 24.1 0 0 0 8.38 5.84 26.87 26.87 0 0 0 10.49 2 37.66 37.66 0 0 0 6.33-.47 24.18 24.18 0 0 0 5.11-1.4 23 23 0 0 0 4.35-2.28 35 35 0 0 0 4-3.18 2.75 2.75 0 0 1 .44-.31 1.07 1.07 0 0 1 .4-.08z" fill="#333"/><path d="m343.16 161.71v-46.48h2.34a1.67 1.67 0 0 1 1.14.32 1.61 1.61 0 0 1 .4 1.12l.37 9.81a22.27 22.27 0 0 1 6-8.85 13.69 13.69 0 0 1 9.2-3.2 15.71 15.71 0 0 1 3.88.45 14.56 14.56 0 0 1 3.37 1.28l-.61 3.08a.85.85 0 0 1 -.94.75 2.42 2.42 0 0 1 -.79-.19l-1.28-.42a18.13 18.13 0 0 0 -1.9-.42 16.25 16.25 0 0 0 -2.57-.18 12 12 0 0 0 -8.66 3.27 23.31 23.31 0 0 0 -5.49 9.43v30.23z" fill="#333"/><path d="m397.77 114.48a19.14 19.14 0 0 1 7.26 1.35 16.44 16.44 0 0 1 5.8 4 18.26 18.26 0 0 1 3.83 6.38 25.52 25.52 0 0 1 1.37 8.69 2.36 2.36 0 0 1 -.3 1.4 1.15 1.15 0 0 1 -1 .37h-33.5v.89a31.5 31.5 0 0 0 1.22 9.2 18.91 18.91 0 0 0 3.45 6.66 14.25 14.25 0 0 0 5.42 4 18 18 0 0 0 7.1 1.35 21.46 21.46 0 0 0 6.08-.77 22.4 22.4 0 0 0 4.32-1.73 24.16 24.16 0 0 0 2.78-1.73 3.16 3.16 0 0 1 1.49-.77 1.07 1.07 0 0 1 .93.47l1.22 1.5a12.84 12.84 0 0 1 -3 2.61 21.38 21.38 0 0 1 -4.11 2.08 29.44 29.44 0 0 1 -4.85 1.38 27 27 0 0 1 -5.21.51 22 22 0 0 1 -8.69-1.66 18.42 18.42 0 0 1 -6.74-4.83 22.15 22.15 0 0 1 -4.34-7.78 33.35 33.35 0 0 1 -1.53-10.53 28.76 28.76 0 0 1 1.42-9.23 21.14 21.14 0 0 1 4.11-7.29 18.82 18.82 0 0 1 6.59-4.78 21.5 21.5 0 0 1 8.88-1.74zm.07 3.32a17.4 17.4 0 0 0 -6.44 1.12 13.93 13.93 0 0 0 -4.92 3.22 16.59 16.59 0 0 0 -3.36 5 23.25 23.25 0 0 0 -1.7 6.59h30.58a20.53 20.53 0 0 0 -1-6.7 14.3 14.3 0 0 0 -2.89-5 12.72 12.72 0 0 0 -4.48-3.16 14.81 14.81 0 0 0 -5.79-1.07z" fill="#333"/><path d="m457.65 161.71a1.61 1.61 0 0 1 -1.73-1.31l-.65-5.94a49.56 49.56 0 0 1 -3.81 3.37 22.23 22.23 0 0 1 -3.94 2.52 19.46 19.46 0 0 1 -4.44 1.57 24.31 24.31 0 0 1 -5.23.53 15.37 15.37 0 0 1 -4.63-.7 11.41 11.41 0 0 1 -4-2.15 10.51 10.51 0 0 1 -2.78-3.71 12.84 12.84 0 0 1 -1.05-5.44 9.68 9.68 0 0 1 1.71-5.45 13.82 13.82 0 0 1 5.26-4.39 35 35 0 0 1 9.2-3 80.27 80.27 0 0 1 13.52-1.31v-4.85q0-6.45-2.78-9.93t-8.24-3.52a15.61 15.61 0 0 0 -5.72.93 20.36 20.36 0 0 0 -4 2.06 26.44 26.44 0 0 0 -2.66 2 2.87 2.87 0 0 1 -1.68 1.01 1.51 1.51 0 0 1 -1.4-.84l-.79-1.36a27.05 27.05 0 0 1 7.66-5.51 21.25 21.25 0 0 1 9.11-1.87 16.7 16.7 0 0 1 6.54 1.19 12.17 12.17 0 0 1 4.64 3.41 14.85 14.85 0 0 1 2.78 5.38 24.41 24.41 0 0 1 .94 7v30.27zm-18.65-2.48a19.41 19.41 0 0 0 5-.59 18.22 18.22 0 0 0 4.21-1.63 20.66 20.66 0 0 0 3.62-2.5c1.12-1 2.22-2 3.31-3.13v-12.1a82.78 82.78 0 0 0 -11.42 1 32.4 32.4 0 0 0 -7.89 2.22 11.57 11.57 0 0 0 -4.58 3.34 7.1 7.1 0 0 0 -1.47 4.41 9.64 9.64 0 0 0 .77 4 7.81 7.81 0 0 0 5 4.42 12 12 0 0 0 3.45.56z" fill="#333"/><path d="m486.1 162.45q-4.73 0-7.33-2.61t-2.62-8.08v-31.76h-6.68a1.24 1.24 0 0 1 -.84-.28 1 1 0 0 1 -.33-.79v-1.73l7.94-.56 1.11-16.64a1.31 1.31 0 0 1 .35-.75 1 1 0 0 1 .81-.33h2.08v17.75h14.62v3.33h-14.62v31.53a9.7 9.7 0 0 0 .49 3.29 6.26 6.26 0 0 0 1.35 2.27 5.38 5.38 0 0 0 2 1.31 7.36 7.36 0 0 0 2.52.42 7.89 7.89 0 0 0 2.9-.49 12.44 12.44 0 0 0 2.1-1.08 14.08 14.08 0 0 0 1.45-1.07 1.54 1.54 0 0 1 .88-.49 1 1 0 0 1 .75.47l1.21 2a12.82 12.82 0 0 1 -4.5 3.15 14 14 0 0 1 -5.64 1.14z" fill="#333"/><path d="m524.45 114.48a22.53 22.53 0 0 1 8.95 1.7 18.18 18.18 0 0 1 6.65 4.84 21.32 21.32 0 0 1 4.14 7.54 35 35 0 0 1 0 19.74 21.4 21.4 0 0 1 -4.14 7.52 17.88 17.88 0 0 1 -6.65 4.81 24.68 24.68 0 0 1 -17.9 0 18.24 18.24 0 0 1 -6.68-4.81 21.26 21.26 0 0 1 -4.15-7.52 34.78 34.78 0 0 1 0-19.74 21.18 21.18 0 0 1 4.15-7.54 18.54 18.54 0 0 1 6.68-4.84 22.53 22.53 0 0 1 8.95-1.7zm0 44.33a17.26 17.26 0 0 0 7.26-1.43 13.74 13.74 0 0 0 5.19-4.08 18.08 18.08 0 0 0 3.1-6.43 34.93 34.93 0 0 0 0-16.87 18.28 18.28 0 0 0 -3.1-6.47 14 14 0 0 0 -5.19-4.13 18.9 18.9 0 0 0 -14.52 0 14 14 0 0 0 -5.19 4.13 18.66 18.66 0 0 0 -3.13 6.47 34.29 34.29 0 0 0 0 16.84 18.46 18.46 0 0 0 3.13 6.46 13.74 13.74 0 0 0 5.19 4.08 17.26 17.26 0 0 0 7.26 1.43z" fill="#333"/><path d="m557.29 161.71v-46.48h2.33a1.29 1.29 0 0 1 1.55 1.44l.37 9.81a22.17 22.17 0 0 1 6-8.85 13.67 13.67 0 0 1 9.2-3.2 15.83 15.83 0 0 1 3.88.45 14.66 14.66 0 0 1 3.36 1.28l-.61 3.08a.84.84 0 0 1 -.93.75 2.36 2.36 0 0 1 -.79-.19l-1.29-.42a17.33 17.33 0 0 0 -1.89-.42 16.43 16.43 0 0 0 -2.57-.18 12 12 0 0 0 -8.67 3.27 23.42 23.42 0 0 0 -5.48 9.43v30.23z" fill="#333"/><path d="m152 44.36h4.08c.68 0 1 .2 1 .94v7.75c0 .68-.21.93-.9.91-1.33 0-2.66 0-4 0s-2.66 0-4 0c-.65 0-.87-.22-.87-.86q0-3.91 0-7.83c0-.7.29-.91 1-.9 1.15.03 2.4 0 3.69-.01z" fill="#fff"/><path d="m107.84 34h4.78c.63 0 .89.21.88.87v5.87c0 .64-.26.81-.85.81-3.18 0-6.37 0-9.55 0-.57 0-.79-.2-.79-.78q0-3 0-6c0-.54.22-.74.75-.74 1.59-.03 3.19-.03 4.78-.03z" fill="#fff"/><path d="m92.47 52.69c0-1.7 0-3.4 0-5.1 0-.64.2-.89.86-.87h4.31c.62 0 .91.19.91.85q0 5.1 0 10.2c0 .61-.25.84-.85.83-1.46 0-2.92 0-4.39 0-.66 0-.86-.26-.84-.89.02-1.71 0-3.35 0-5.02z" fill="#fff"/><path d="m125.3 42c-1.28 0-2.56 0-3.84 0-.61 0-.85-.24-.84-.83 0-1.47 0-2.93 0-4.39 0-.63.26-.88.9-.87q3.84 0 7.68 0c.68 0 .94.26.93.93v4.23c0 .73-.3 1-1 .94-1.27-.01-2.55-.01-3.83-.01z" fill="#fff"/><path d="m139.19 46.52c-.89 0-1.77 0-2.66 0-.59 0-.86-.21-.86-.82 0-1.36 0-2.72 0-4.08 0-.51.2-.75.74-.75h5.64c.51 0 .78.16.77.72v4.15c0 .58-.27.79-.82.78-.93-.01-1.87 0-2.81 0z" fill="#fff"/><path d="m155.9 40.58c0 .59-.3.81-.89.79-1 0-2 0-3 0-.68 0-1.35 0-2 0-.53 0-.76-.24-.76-.76v-3.68c0-.5.17-.77.73-.77h5.24c.54 0 .75.21.74.74-.09 1.23-.07 2.45-.06 3.68z" fill="#fff"/><path d="m111 53.77c-2.18 0-2.2 0-2.18-2.18 0-1.81-.38-1.86 1.87-1.84h1.79c.5 0 .76.23.75.77v2.58c0 .46-.19.67-.66.66s-1.08.01-1.57.01z" fill="#fff"/><path d="m165.06 55.52c-.65 0-1.3 0-1.95 0-.43 0-.64-.19-.63-.61v-.08c.05-2.83-.41-2.27 2.19-2.32h2.28c.49 0 .71.18.7.69-.05 2.81.4 2.27-2.19 2.33z" fill="#fff"/><path d="m165.33 48.7h-1.8c-.48 0-.69-.23-.72-.72-.13-2-.14-2 1.9-2h2.5c.58 0 .79.22.78.79 0 2.18.26 2-2 2z" fill="#fff"/><circle cx="186.36" cy="105.41" fill="none" r="24.6" stroke="#fff" stroke-linecap="round" stroke-miterlimit="10" stroke-width=".75"/><circle cx="186.36" cy="105.41" fill="none" r="26.54" stroke="#fff" stroke-linecap="round" stroke-miterlimit="10" stroke-width=".75"/><circle cx="186.36" cy="105.41" fill="none" r="28.82" stroke="#fff" stroke-linecap="round" stroke-miterlimit="10" stroke-width=".75"/><path d="m172.89 49.81s10.4 10.51 10.79 10.83.35 1.16.35 1.16.07 8.46.07 11.15c0 1.6-.56 1.46-1.34 1.57a31.12 31.12 0 1 0 7.48 0c-1.1-.15-1-.83-1-1.35 0-1.55 0-11.73 0-14.31 0 0-.06-.87-.42-1.11s-9.25-9.75-9.25-9.75" fill="none" stroke="#fff" stroke-linecap="round" stroke-miterlimit="10" stroke-width=".75"/></svg>