<svg enable-background="new 0 0 100.4 101.3" viewBox="0 0 100.4 101.3" xmlns="http://www.w3.org/2000/svg"><path d="m88.4 101.3h-76.4c-6.6 0-12-5.4-12-12v-77.3c0-6.6 5.4-12 12-12h76.4c6.6 0 12 5.4 12 12v77.3c0 6.6-5.4 12-12 12z" fill="#008ab8"/><g fill="#fff"><path d="m28.6 51.6c-3.5 0-7 0-10.5 0-.4 0-.6.1-.6.6 0 2.1.1 4.2.6 6.2.5 2.4 1.2 3.5 4.4 4.1 2.4.5 4.9.3 7.3.2 2.1-.1 4.2-.3 6.3-.6 1-.1 1-.1 1.1.9.1.6.1 1.2.2 1.8.1.4 0 .5-.4.6-1.7.3-3.4.5-5.1.8-2.4.3-4.9.5-7.3.3-1.9-.1-3.8-.3-5.7-.9-2.8-.8-4.5-2.6-5.3-5.4-.7-2.7-1-5.4-1-8.2 0-2.6 0-5.2.3-7.7.2-1.4.5-2.8 1-4.1 1-2.5 2.9-3.9 5.5-4.6 2.5-.7 5-.7 7.6-.7 1.9 0 3.9.3 5.8.7 3.3.7 5.3 2.6 6 5.9.3 1.5.6 3 .7 4.6s.1 3.3.1 4.9c0 .5-.2.6-.6.6-3.4 0-6.9 0-10.4 0zm-2.3-3.5h8.1c.5 0 .6-.1.6-.6 0-1.3 0-2.6-.2-3.9-.5-3.2-1.6-4-4.1-4.5-2.9-.6-5.7-.5-8.6 0-2.3.4-3.7 1.7-4.1 4-.3 1.5-.4 2.9-.4 4.4 0 .5.1.6.6.6 2.7-.1 5.4 0 8.1 0z"/><path d="m77.5 49.5c0-2.3 0-4.5 0-6.8 0-.5.1-.6.6-.6h3.2c.4 0 .6.1.6.6v13.3c0 .5.1.7.6.6 1.5-.2 3-.3 4.5-.5.3 0 .4 0 .4.3.1.9.2 1.8.3 2.7 0 .3-.1.4-.4.5-1.7.3-3.4.6-5.1.8-.4 0-.5.2-.5.6v5c0 .4-.1.5-.5.5-1.1 0-2.2 0-3.4 0-.4 0-.5-.1-.5-.5 0-1.5 0-3 0-4.5 0-.4 0-.5-.5-.5-3.2.1-6.3 0-9.4-.6-4-.9-6.1-3.5-6.8-7.4-.4-1.9-.5-3.8-.5-5.8 0-3.8 0-7.7 0-11.5 0-.4.1-.5.5-.5h3.8c.4 0 .5.1.5.5v10.1c0 2.3 0 4.5.5 6.7.6 2.8 1.5 3.7 4.4 4.2 2.4.4 4.7.5 7.1.5.4 0 .5-.1.5-.5.1-2.7.1-5 .1-7.2z"/><path d="m52.1 50.5v15c0 .5-.2.6-.7.6-1.1 0-2.2 0-3.3 0-.5 0-.6-.1-.6-.6 0-5.5 0-11 0-16.4 0-4.5 0-9.1 0-13.6 0-.8-.1-.7.8-.7h3.2c.4 0 .6.1.6.6z"/></g></svg>