<?xml version="1.0" encoding="utf-8"?>
<!-- Generator: Adobe Illustrator 23.0.4, SVG Export Plug-In . SVG Version: 6.00 Build 0)  -->
<svg version="1.1" id="Layer_1" xmlns="http://www.w3.org/2000/svg" xmlns:xlink="http://www.w3.org/1999/xlink" x="0px" y="0px"
	 viewBox="0 0 100.4 101.3" style="enable-background:new 0 0 100.4 101.3;" xml:space="preserve">
<style type="text/css">
	.st0{fill:#2C2C2C;}
	.st1{fill:#FFFFFF;}
	.st2{fill:#0094BC;}
	.st3{fill:#008AB8;}
</style>
<g>
	<path class="st0" d="M88.4,101.3H12c-6.6,0-12-5.4-12-12V12C0,5.4,5.4,0,12,0h76.4c6.6,0,12,5.4,12,12v77.3
		C100.4,95.9,95,101.3,88.4,101.3z"/>
	<g>
		<path class="st1" d="M81,33.7C77.8,28.3,73.5,24,68,20.8C62.6,17.6,56.7,16,50.2,16c-6.4,0-12.4,1.6-17.8,4.8
			C27,24,22.7,28.3,19.5,33.7c-3.2,5.4-4.8,11.4-4.8,17.8c0,7.7,2.3,14.7,6.8,20.9C26,78.6,31.8,82.8,39,85.2c0.8,0.2,1.4,0,1.8-0.3
			c0.4-0.4,0.6-0.8,0.6-1.4c0-0.1,0-0.9,0-2.5c0-1.6,0-2.9,0-4.1l-1.1,0.2c-0.7,0.1-1.5,0.2-2.6,0.2c-1,0-2.1-0.1-3.2-0.3
			c-1.1-0.2-2.1-0.7-3.1-1.4c-1-0.7-1.6-1.7-2-2.8L29,71.6c-0.3-0.7-0.8-1.5-1.5-2.4c-0.7-0.9-1.3-1.4-2-1.8l-0.3-0.2
			c-0.2-0.2-0.4-0.3-0.6-0.6c-0.2-0.2-0.3-0.4-0.4-0.6c-0.1-0.2,0-0.4,0.2-0.5c0.2-0.1,0.7-0.2,1.3-0.2l0.9,0.1
			c0.6,0.1,1.4,0.5,2.3,1.1c0.9,0.6,1.7,1.4,2.2,2.4c0.7,1.3,1.6,2.2,2.6,2.9c1,0.7,2,1,3,1c1,0,1.9-0.1,2.6-0.2
			c0.7-0.2,1.4-0.4,2.1-0.7c0.3-2.1,1-3.7,2.3-4.8C42,67,40.4,66.7,39,66.4c-1.4-0.4-2.8-1-4.3-1.8c-1.5-0.8-2.7-1.9-3.7-3.1
			c-1-1.2-1.8-2.9-2.4-4.9c-0.6-2-0.9-4.3-0.9-6.9c0-3.7,1.2-6.9,3.7-9.5c-1.1-2.8-1-5.9,0.3-9.4c0.9-0.3,2.2-0.1,4,0.6
			c1.8,0.7,3,1.3,3.9,1.8c0.8,0.5,1.5,0.9,2,1.2c2.9-0.8,5.8-1.2,8.9-1.2s6,0.4,8.9,1.2l1.8-1.1c1.2-0.7,2.6-1.4,4.3-2
			c1.6-0.6,2.9-0.8,3.7-0.5c1.4,3.5,1.5,6.6,0.4,9.4c2.4,2.6,3.7,5.8,3.7,9.5c0,2.6-0.3,4.9-0.9,7c-0.6,2-1.4,3.6-2.4,4.9
			c-1,1.2-2.3,2.2-3.7,3.1c-1.5,0.8-2.9,1.4-4.3,1.8c-1.4,0.4-3,0.6-4.7,0.8c1.6,1.4,2.4,3.6,2.4,6.6v9.8c0,0.6,0.2,1,0.6,1.4
			c0.4,0.4,1,0.5,1.8,0.3c7.1-2.4,13-6.6,17.5-12.8c4.5-6.2,6.8-13.1,6.8-20.9C85.7,45.1,84.1,39.2,81,33.7z"/>
	</g>
</g>
</svg>
