<svg width="20" height="21" viewBox="0 0 20 21" version="1.1" xmlns="http://www.w3.org/2000/svg" xmlns:xlink="http://www.w3.org/1999/xlink">
<title>Vector.svg</title>
<desc>Created using Figma</desc>
<g id="Canvas" transform="translate(-17004 -7493)">
<g id="Vector">
<use xlink:href="#path0_fill" transform="translate(17004 7493)" fill="#2F80ED"/>
</g>
</g>
<defs>
<path id="path0_fill" d="M 19.6959 19.1277L 14.7656 13.9295C 16.0332 12.4018 16.7278 10.4797 16.7278 8.47874C 16.7278 3.80364 12.9757 0 8.36391 0C 3.75212 0 9.88385e-09 3.80364 9.88385e-09 8.47874C 9.88385e-09 13.1538 3.75212 16.9575 8.36391 16.9575C 10.0952 16.9575 11.7451 16.4281 13.1557 15.4232L 18.1235 20.6609C 18.3311 20.8795 18.6104 21 18.9097 21C 19.193 21 19.4617 20.8905 19.6657 20.6914C 20.0992 20.2686 20.113 19.5675 19.6959 19.1277ZM 8.36391 2.21185C 11.7727 2.21185 14.5459 5.0231 14.5459 8.47874C 14.5459 11.9344 11.7727 14.7456 8.36391 14.7456C 4.95507 14.7456 2.18189 11.9344 2.18189 8.47874C 2.18189 5.0231 4.95507 2.21185 8.36391 2.21185Z"/>
</defs>
</svg>
