<svg viewBox="0 0 579 256" xmlns="http://www.w3.org/2000/svg"><circle cx="126.94" cy="128" fill="#1640d8" r="105.81"/><g fill="#fff"><rect height="12.95" rx=".95" width="13.45" x="37.39" y="121.52"/><rect height="12.95" rx=".95" width="13.45" x="203.04" y="121.52"/><rect height="12.95" rx=".95" transform="matrix(.93746437 -.34808124 .34808124 .93746437 -51.49 26.96)" width="13.45" x="42.57" y="150.35"/><rect height="12.95" rx=".95" transform="matrix(.93746437 -.34808124 .34808124 .93746437 -21.73 77.4)" width="13.45" x="197.86" y="92.7"/><rect height="12.95" rx=".95" transform="matrix(.75779279 -.65249527 .65249527 .75779279 -103.24 85.97)" width="13.45" x="57.45" y="175.57"/><rect height="12.95" rx=".95" transform="matrix(.75779279 -.65249527 .65249527 .75779279 -2.31 141.7)" width="13.45" x="182.98" y="67.48"/><rect height="12.95" rx=".95" transform="matrix(.48328238 -.87546453 .87546453 .48328238 -130.63 179.68)" width="13.45" x="80.19" y="194.03"/><rect height="12.95" rx=".95" transform="matrix(.48328238 -.87546453 .87546453 .48328238 37.69 174.85)" width="13.45" x="160.25" y="49.02"/><rect height="12.95" rx=".95" transform="matrix(.14849984 -.98891243 .98891243 .14849984 -109.95 292.12)" width="13.45" x="107.92" y="203.43"/><rect height="12.95" rx=".95" transform="matrix(.14849984 -.98891243 .98891243 .14849984 72.98 176.95)" width="13.45" x="132.51" y="39.62"/><rect height="12.95" rx=".95" transform="matrix(-.20500856 -.97876018 .97876018 -.20500856 -31.21 392.78)" width="13.45" x="137.19" y="202.59"/><rect height="12.95" rx=".95" transform="matrix(-.20500856 -.97876018 .97876018 -.20500856 86.57 164.19)" width="13.45" x="103.24" y="40.46"/><rect height="12.95" rx=".95" transform="matrix(-.53272858 -.84628616 .84628616 -.53272858 94.58 448.4)" width="13.45" x="164.34" y="191.61"/><rect height="12.95" rx=".95" transform="matrix(-.53272858 -.84628616 .84628616 -.53272858 77.93 158.85)" width="13.45" x="76.09" y="51.43"/><rect height="12.95" rx=".95" transform="matrix(-.7939904 -.6079303 .6079303 -.7939904 237.28 437.11)" width="13.45" x="185.98" y="171.88"/><rect height="12.95" rx=".95" transform="matrix(-.79 -.61 .61 -.79 62.55 176.49)" width="13.45" x="54.46" y="71.17"/><rect height="12.95" rx=".95" transform="matrix(-.95 -.32 .32 -.95 350.78 366.41)" width="13.45" x="198.7" y="147.97"/><rect height="12.95" rx=".95" transform="matrix(-.94765701 -.31929012 .31929012 -.94765701 61.94 213.26)" width="13.45" x="41.73" y="95.07"/><path d="m134.52 120.48h23.97v24.28h-23.97z"/><path d="m111.66 160.69h-49.1a1.76 1.76 0 0 1 -1.76-1.77v-49.52a1.76 1.76 0 0 1 1.76-1.76h49.1a1.76 1.76 0 0 1 1.76 1.76v49.52a1.76 1.76 0 0 1 -1.76 1.77z"/><path d="m104.81 105.61h-32.92a1.76 1.76 0 0 1 -1.76-1.76v-19a1.76 1.76 0 0 1 1.76-1.85h32.92a1.76 1.76 0 0 1 1.76 1.76v19a1.76 1.76 0 0 1 -1.76 1.85z"/><path d="m89.68 172.26h77.95v17.54h-77.95z"/></g><path d="m163.49 186.25h-3v-4.35h3zm-1.74-1.3h.44v-1.75h-.44zm-4.32 1.3h-3v-4.35h3zm-1.74-1.3h.44v-1.75h-.44zm-4.32 1.3h-3v-4.35h3zm-1.74-1.3h.44v-1.75h-.44zm-4.31 1.3h-3v-4.35h3zm-1.74-1.3h.42v-1.75h-.44zm-4.32 1.3h-3v-4.35h3zm-1.74-1.3h.48v-1.75h-.44zm-4.32 1.3h-3v-4.35h3zm-1.74-1.3h.44v-1.75h-.44zm-4.32 1.3h-3v-4.35h3zm-1.74-1.25h.44v-1.8h-.44zm-4.32 1.3h-3v-4.4h3zm-1.74-1.3h.44v-1.8h-.44zm-4.31 1.3h-3v-4.4h3zm-1.74-1.3h.44v-1.8h-.44zm-4.32 1.3h-3v-4.4h3zm-1.74-1.3h.44v-1.8h-.44zm-4.32 1.3h-3v-4.4h3zm-1.74-1.3h.44v-1.8h-.44zm-4.32 1.3h-3v-4.4h3zm-1.74-1.3h.44v-1.8h-.44zm68.17-4.88h-3v-4.35h3zm-1.74-1.3h.46v-1.82h-.44zm-4.32 1.3h-3v-4.35h3zm-1.74-1.3h.44v-1.82h-.44zm-4.32 1.3h-3v-4.35h3zm-1.74-1.3h.44v-1.82h-.44zm-4.31 1.3h-3.05v-4.35h3.05zm-1.74-1.3h.43v-1.82h-.43zm-4.32 1.3h-3v-4.35h3zm-1.74-1.3h.44v-1.82h-.44zm-4.32 1.3h-3v-4.35h3zm-1.74-1.3h.44v-1.82h-.44zm-4.32 1.3h-3v-4.35h3zm-1.74-1.3h.44v-1.82h-.44zm-4.32 1.3h-3v-4.35h3zm-1.74-1.3h.44v-1.82h-.44zm-4.31 1.3h-3v-4.35h3zm-1.75-1.3h.44v-1.82h-.44zm-4.31 1.3h-3v-4.35h3zm-1.74-1.3h.44v-1.82h-.46zm-4.32 1.3h-3v-4.35h3zm-1.74-1.3h.44v-1.82h-.4zm-4.32 1.3h-3v-4.35h3zm-1.74-1.3h.44v-1.82h-.44z" fill="#1640d8"/><path d="m258 94.93h3.78a1.6 1.6 0 0 1 1.08.35 2.26 2.26 0 0 1 .65.91l22.49 54.81a29.91 29.91 0 0 1 1.45 4.58 25.47 25.47 0 0 1 1.35-4.58l22.47-54.84a2.44 2.44 0 0 1 .68-.89 1.62 1.62 0 0 1 1.09-.37h3.74l-27.27 66.1h-4.25z" fill="#333"/><path d="m342.76 113.8a22.36 22.36 0 0 1 8.95 1.71 18 18 0 0 1 6.65 4.83 21.41 21.41 0 0 1 4.14 7.54 35 35 0 0 1 0 19.74 21.4 21.4 0 0 1 -4.14 7.52 17.88 17.88 0 0 1 -6.65 4.81 24.65 24.65 0 0 1 -17.89 0 18.19 18.19 0 0 1 -6.69-4.81 21.26 21.26 0 0 1 -4.15-7.52 34.78 34.78 0 0 1 0-19.74 21.27 21.27 0 0 1 4.15-7.54 18.35 18.35 0 0 1 6.69-4.83 22.27 22.27 0 0 1 8.94-1.71zm0 44.33a17.18 17.18 0 0 0 7.24-1.43 13.79 13.79 0 0 0 5.18-4.08 18.26 18.26 0 0 0 3.11-6.43 35.26 35.26 0 0 0 0-16.84 18.41 18.41 0 0 0 -3.11-6.46 13.94 13.94 0 0 0 -5.18-4.14 18.93 18.93 0 0 0 -14.53 0 13.89 13.89 0 0 0 -5.19 4.14 18.61 18.61 0 0 0 -3.13 6.46 34.29 34.29 0 0 0 0 16.84 18.46 18.46 0 0 0 3.13 6.43 13.74 13.74 0 0 0 5.19 4.08 17.1 17.1 0 0 0 7.29 1.43z" fill="#333"/><path d="m383.31 98.53a3.6 3.6 0 0 1 -.35 1.56 4.88 4.88 0 0 1 -.91 1.28 4.22 4.22 0 0 1 -1.31.89 4 4 0 0 1 -3.18 0 4.22 4.22 0 0 1 -1.31-.89 4.18 4.18 0 0 1 -.88-1.28 3.73 3.73 0 0 1 -.33-1.56 4.08 4.08 0 0 1 .33-1.62 4 4 0 0 1 2.19-2.21 4 4 0 0 1 3.18 0 4.19 4.19 0 0 1 1.31.88 4.82 4.82 0 0 1 .91 1.33 3.93 3.93 0 0 1 .35 1.62zm-2 16v46.47h-4.43v-46.45z" fill="#333"/><path d="m428.38 120.76a3.89 3.89 0 0 1 -.44.4.91.91 0 0 1 -.58.16 2.47 2.47 0 0 1 -1.29-.63 17.38 17.38 0 0 0 -2.17-1.38 18 18 0 0 0 -3.39-1.38 16.74 16.74 0 0 0 -4.93-.63 16.92 16.92 0 0 0 -7.12 1.43 14.21 14.21 0 0 0 -5.23 4.08 18.82 18.82 0 0 0 -3.25 6.45 30.17 30.17 0 0 0 -1.12 8.5 29.8 29.8 0 0 0 1.15 8.69 18.52 18.52 0 0 0 3.24 6.38 13.85 13.85 0 0 0 5.1 3.95 15.91 15.91 0 0 0 6.63 1.35 17.2 17.2 0 0 0 5.63-.79 18.43 18.43 0 0 0 3.73-1.73 17.14 17.14 0 0 0 2.34-1.73 2.37 2.37 0 0 1 1.38-.79 1.07 1.07 0 0 1 .93.46l1.22 1.5a13.8 13.8 0 0 1 -2.71 2.61 18.79 18.79 0 0 1 -3.69 2.11 22.43 22.43 0 0 1 -4.47 1.37 24.78 24.78 0 0 1 -5 .49 19.82 19.82 0 0 1 -8.1-1.61 17.48 17.48 0 0 1 -6.31-4.67 21.83 21.83 0 0 1 -4.11-7.5 34.87 34.87 0 0 1 -.07-19.8 22 22 0 0 1 4.09-7.57 18.27 18.27 0 0 1 6.59-4.93 21.58 21.58 0 0 1 8.94-1.75 21 21 0 0 1 8.06 1.45 19.61 19.61 0 0 1 6.14 3.92z" fill="#333"/><path d="m457.81 113.8a19.14 19.14 0 0 1 7.26 1.35 16.44 16.44 0 0 1 5.8 3.95 18.35 18.35 0 0 1 3.83 6.38 25.28 25.28 0 0 1 1.38 8.69 2.34 2.34 0 0 1 -.31 1.4 1.15 1.15 0 0 1 -1 .37h-33.5v.89a31.5 31.5 0 0 0 1.22 9.2 18.77 18.77 0 0 0 3.46 6.66 14.18 14.18 0 0 0 5.42 4 17.92 17.92 0 0 0 7.09 1.35 21.1 21.1 0 0 0 6.08-.77 22.4 22.4 0 0 0 4.32-1.73 22.08 22.08 0 0 0 2.78-1.73 3.11 3.11 0 0 1 1.49-.76 1.08 1.08 0 0 1 .94.46l1.21 1.5a12.78 12.78 0 0 1 -3 2.61 21.19 21.19 0 0 1 -4.12 2.08 29.44 29.44 0 0 1 -4.85 1.38 27 27 0 0 1 -5.21.51 22.17 22.17 0 0 1 -8.69-1.65 18.45 18.45 0 0 1 -6.73-4.84 22 22 0 0 1 -4.35-7.78 33.31 33.31 0 0 1 -1.53-10.53 28.76 28.76 0 0 1 1.42-9.23 21.09 21.09 0 0 1 4.11-7.28 18.72 18.72 0 0 1 6.59-4.79 21.67 21.67 0 0 1 8.89-1.69zm.07 3.32a17.4 17.4 0 0 0 -6.44 1.12 13.93 13.93 0 0 0 -4.92 3.22 16.59 16.59 0 0 0 -3.36 5 23.25 23.25 0 0 0 -1.7 6.59h30.6a20.27 20.27 0 0 0 -1-6.7 14.3 14.3 0 0 0 -2.89-5 12.63 12.63 0 0 0 -4.48-3.16 14.81 14.81 0 0 0 -5.81-1.07z" fill="#333"/></svg>